<svg width="82" height="26" viewBox="0 0 82 26" fill="none" xmlns="http://www.w3.org/2000/svg">
<path d="M42.8205 6.37101C42.8205 7.28478 42.0844 8.02088 41.1706 8.02088C40.2568 8.02088 39.5207 7.28478 39.5207 6.37101C39.5207 5.45724 40.2315 4.72115 41.1706 4.72115C42.1098 4.74653 42.8205 5.48263 42.8205 6.37101ZM36.018 9.69613C36.018 9.84842 36.018 10.1022 36.018 10.1022C36.018 10.1022 35.2311 9.08694 33.5559 9.08694C30.7892 9.08694 28.6316 11.1937 28.6316 14.1127C28.6316 17.0063 30.7638 19.1384 33.5559 19.1384C35.2565 19.1384 36.018 18.0977 36.018 18.0977V18.5292C36.018 18.7323 36.1702 18.8846 36.3733 18.8846H38.4293V9.34077C38.4293 9.34077 36.551 9.34077 36.3733 9.34077C36.1702 9.34077 36.018 9.51845 36.018 9.69613ZM36.018 15.8133C35.6372 16.3717 34.8757 16.854 33.962 16.854C32.3375 16.854 31.0937 15.8387 31.0937 14.1127C31.0937 12.3867 32.3375 11.3714 33.962 11.3714C34.8504 11.3714 35.6626 11.879 36.018 12.4121V15.8133ZM39.9522 9.34077H42.389V18.8846H39.9522V9.34077ZM76.3508 9.08694C74.6755 9.08694 73.8887 10.1022 73.8887 10.1022V4.74653H71.452V18.8846C71.452 18.8846 73.3303 18.8846 73.5079 18.8846C73.711 18.8846 73.8633 18.7069 73.8633 18.5292V18.0977C73.8633 18.0977 74.6502 19.1384 76.3254 19.1384C79.0921 19.1384 81.2496 17.0063 81.2496 14.1127C81.2496 11.2191 79.0921 9.08694 76.3508 9.08694ZM75.9447 16.8286C75.0055 16.8286 74.2694 16.3463 73.8887 15.7879V12.3867C74.2694 11.879 75.0817 11.346 75.9447 11.346C77.5691 11.346 78.8129 12.3613 78.8129 14.0873C78.8129 15.8133 77.5691 16.8286 75.9447 16.8286ZM70.1828 13.2243V18.91H67.7461V13.5035C67.7461 11.9298 67.2385 11.2952 65.8678 11.2952C65.1317 11.2952 64.3702 11.676 63.888 12.2344V18.8846H61.4512V9.34077H63.3803C63.5834 9.34077 63.7357 9.51845 63.7357 9.69613V10.1022C64.4464 9.36615 65.3855 9.08694 66.3247 9.08694C67.3907 9.08694 68.2791 9.39153 68.9898 10.0007C69.8529 10.7114 70.1828 11.6252 70.1828 13.2243ZM55.5371 9.08694C53.8619 9.08694 53.075 10.1022 53.075 10.1022V4.74653H50.6383V18.8846C50.6383 18.8846 52.5166 18.8846 52.6943 18.8846C52.8973 18.8846 53.0496 18.7069 53.0496 18.5292V18.0977C53.0496 18.0977 53.8365 19.1384 55.5117 19.1384C58.2784 19.1384 60.4359 17.0063 60.4359 14.1127C60.4613 11.2191 58.3038 9.08694 55.5371 9.08694ZM55.131 16.8286C54.1918 16.8286 53.4557 16.3463 53.075 15.7879V12.3867C53.4557 11.879 54.268 11.346 55.131 11.346C56.7555 11.346 57.9992 12.3613 57.9992 14.0873C57.9992 15.8133 56.7555 16.8286 55.131 16.8286ZM48.5315 9.08694C49.2676 9.08694 49.6484 9.21386 49.6484 9.21386V11.4729C49.6484 11.4729 47.6178 10.7876 46.3486 12.2344V18.91H43.9119V9.34077C43.9119 9.34077 45.7902 9.34077 45.9679 9.34077C46.171 9.34077 46.3233 9.51845 46.3233 9.69613V10.1022C46.7801 9.56921 47.7701 9.08694 48.5315 9.08694ZM23.2252 18.0216C23.0983 17.717 22.9713 17.387 22.8444 17.1078C22.6414 16.6509 22.4383 16.2194 22.2606 15.8133L22.2352 15.7879C20.4839 11.9806 18.6055 8.12241 16.6257 4.31503L16.5496 4.16273C16.3465 3.782 16.1434 3.37588 15.9404 2.96976C15.6866 2.51287 15.4327 2.0306 15.0266 1.57372C14.2144 0.558415 13.0468 0 11.803 0C10.5339 0 9.3917 0.558416 8.55407 1.52295C8.17333 1.97984 7.89413 2.4621 7.6403 2.91899C7.43724 3.32511 7.23418 3.73123 7.03112 4.11197L6.95497 4.26426C5.00052 8.07164 3.09683 11.9298 1.34544 15.7372L1.32005 15.7879C1.14238 16.1941 0.939315 16.6256 0.736255 17.0824C0.609343 17.3616 0.48243 17.6662 0.355517 17.9962C0.0255446 18.9354 -0.0759855 19.8238 0.0509271 20.7375C0.330135 22.6412 1.59926 24.2403 3.35065 24.951C4.0106 25.2302 4.69593 25.3571 5.40664 25.3571C5.6097 25.3571 5.86352 25.3318 6.06658 25.3064C6.90421 25.2048 7.76721 24.9256 8.60484 24.4434C9.64552 23.8596 10.6354 23.0219 11.7523 21.8036C12.8691 23.0219 13.8844 23.8596 14.8997 24.4434C15.7373 24.9256 16.6003 25.2048 17.438 25.3064C17.641 25.3318 17.8948 25.3571 18.0979 25.3571C18.8086 25.3571 19.5193 25.2302 20.1539 24.951C21.9307 24.2403 23.1744 22.6158 23.4536 20.7375C23.6567 19.8491 23.5551 18.9607 23.2252 18.0216ZM11.7777 19.3415C10.407 17.6155 9.51861 15.991 9.21402 14.6203C9.0871 14.0365 9.06172 13.5289 9.13787 13.072C9.18863 12.6659 9.34093 12.3105 9.54399 12.0059C10.0263 11.3206 10.8385 10.8891 11.7777 10.8891C12.7168 10.8891 13.5544 11.2952 14.0113 12.0059C14.2144 12.3105 14.3667 12.6659 14.4174 13.072C14.4936 13.5289 14.4682 14.0619 14.3413 14.6203C14.0367 15.9656 13.1483 17.5901 11.7777 19.3415ZM21.9053 20.5345C21.7276 21.8544 20.8392 22.9966 19.5955 23.5042C18.9863 23.758 18.3263 23.8342 17.6664 23.758C17.0318 23.6819 16.3973 23.4788 15.7373 23.0981C14.8236 22.5904 13.9098 21.8036 12.8437 20.636C14.519 18.58 15.5343 16.7017 15.915 15.0265C16.0927 14.2396 16.1181 13.5289 16.0419 12.8689C15.9404 12.2344 15.7119 11.6506 15.3566 11.1429C14.5697 10.0007 13.2498 9.34077 11.7777 9.34077C10.3055 9.34077 8.98557 10.0261 8.19872 11.1429C7.84336 11.6506 7.61492 12.2344 7.51339 12.8689C7.41186 13.5289 7.43724 14.265 7.6403 15.0265C8.02104 16.7017 9.06172 18.6054 10.7116 20.6614C9.6709 21.829 8.73175 22.6158 7.81798 23.1235C7.15803 23.5042 6.52347 23.7073 5.88891 23.7834C5.20358 23.8596 4.54363 23.758 3.95984 23.5296C2.71609 23.0219 1.8277 21.8797 1.65003 20.5598C1.57388 19.9253 1.62464 19.2907 1.87847 18.58C1.95462 18.3262 2.08153 18.0724 2.20844 17.7678C2.38612 17.3616 2.58918 16.9301 2.79224 16.4986L2.81762 16.4479C4.56902 12.6659 6.44732 8.80774 8.40178 5.05112L8.47792 4.89883C8.68098 4.51809 8.88404 4.11197 9.0871 3.73123C9.29016 3.32511 9.51861 2.94437 9.79781 2.6144C10.3308 2.00522 11.0416 1.67525 11.8284 1.67525C12.6153 1.67525 13.326 2.00522 13.859 2.6144C14.1382 2.94437 14.3667 3.32511 14.5697 3.73123C14.7728 4.11197 14.9758 4.51809 15.1789 4.89883L15.2551 5.05112C17.1841 8.83312 19.0624 12.6913 20.8138 16.4733V16.4986C21.0169 16.9048 21.1946 17.3616 21.3976 17.7678C21.5245 18.0724 21.6514 18.3262 21.7276 18.58C21.9307 19.24 22.0068 19.8745 21.9053 20.5345Z" fill="#FF5A5F"/>
</svg>
