<svg width="82" height="15" viewBox="0 0 82 15" fill="none" xmlns="http://www.w3.org/2000/svg">
<path d="M80.9924 7.38787V4.47553C80.486 4.49832 78.9668 4.73076 78.2943 5.63773V4.67607H75.4584V14.3793H78.2943V9.7943C78.6994 7.63398 80.5346 7.4061 81.0005 7.38787H80.9924ZM55.5911 7.50181C55.2868 7.19564 54.9389 6.94914 54.5621 6.77258C54.2517 6.60241 53.9107 6.51507 53.5655 6.51736C53.3097 6.51452 53.0566 6.57521 52.8241 6.6951C52.7182 6.74346 52.6284 6.82794 52.5673 6.93667C52.5063 7.04539 52.4771 7.1729 52.4838 7.30127C52.481 7.43145 52.5158 7.55913 52.583 7.66515C52.6502 7.77116 52.7462 7.84979 52.8565 7.88921C53.2523 8.05403 53.6586 8.18505 54.0719 8.28116C54.4085 8.36323 54.739 8.47447 55.0604 8.61387C55.3836 8.75255 55.6867 8.94455 55.9598 9.18358C56.2262 9.41935 56.4468 9.71407 56.6079 10.0495C56.7777 10.4245 56.8612 10.8413 56.851 11.2619C56.8688 11.7755 56.7658 12.2853 56.5524 12.7399C56.339 13.1944 56.0228 13.5775 55.6356 13.8506C55.2644 14.1214 54.8526 14.3144 54.4203 14.4203C53.985 14.5378 53.5391 14.5975 53.0915 14.5981C52.3822 14.5981 51.6776 14.4688 51.0051 14.2152C50.3666 13.9918 49.7828 13.6049 49.2995 13.0849L50.7012 11.1115C51.0429 11.4625 51.4311 11.7516 51.8518 11.9683C52.22 12.1767 52.6267 12.2844 53.0388 12.2828C53.2793 12.28 53.5161 12.2161 53.7316 12.0959C53.8411 12.0387 53.9323 11.9451 53.9932 11.8278C54.054 11.7105 54.0815 11.575 54.0719 11.4396C54.0733 11.2953 54.0352 11.154 53.9627 11.0349C53.8903 10.9158 53.7869 10.8248 53.6667 10.7742C53.2442 10.5764 52.8061 10.4238 52.3582 10.3184C52.0484 10.2366 51.7439 10.1316 51.4467 10.004C51.1539 9.87604 50.8805 9.69768 50.6364 9.47527C50.4032 9.25143 50.2107 8.97907 50.0692 8.67312C49.9111 8.30722 49.8333 7.90398 49.8424 7.49725C49.8291 6.97121 49.944 6.4511 50.1746 5.99323C50.3916 5.58114 50.6895 5.23037 51.0456 4.96775C51.3993 4.70116 51.7913 4.50533 52.2042 4.38893C52.6196 4.26661 53.047 4.20383 53.4763 4.20207C54.1258 4.20132 54.7713 4.3167 55.3885 4.54389C55.9778 4.75104 56.5189 5.10285 56.9726 5.57392L55.5911 7.50181ZM72.189 8.26749C72.1856 7.82084 72.0422 7.38988 71.7839 7.0506C71.6172 6.85881 71.415 6.71076 71.1916 6.61701C70.9682 6.52326 70.7292 6.48612 70.4916 6.50824C70.2333 6.50579 69.9768 6.55518 69.734 6.65408C69.5134 6.74478 69.309 6.87906 69.1303 7.0506C68.9638 7.21815 68.8265 7.41906 68.7252 7.64309C68.6352 7.83753 68.5789 8.04941 68.5591 8.26749H72.189ZM74.8021 9.58465V9.97205C74.8084 10.095 74.8084 10.2183 74.8021 10.3412H68.547C68.5651 10.6017 68.6388 10.8533 68.7617 11.075C68.8837 11.2975 69.0417 11.4923 69.2276 11.6493C69.4218 11.8127 69.6379 11.9403 69.8677 12.0276C70.1036 12.1187 70.3515 12.1649 70.6009 12.1643C70.9966 12.1772 71.389 12.0802 71.7434 11.8817C72.0416 11.7061 72.3007 11.4568 72.501 11.1525L74.4739 12.5517C74.0628 13.2113 73.5037 13.7366 72.8534 14.0739C72.1358 14.4374 71.3553 14.6164 70.5685 14.5981C69.944 14.6021 69.3234 14.4865 68.7333 14.2562C68.1762 14.0428 67.6625 13.7066 67.2222 13.2672C66.7847 12.8227 66.4378 12.277 66.2053 11.6675C65.9464 10.982 65.8194 10.2427 65.8326 9.49806C65.8243 8.76261 65.9469 8.03271 66.1932 7.35141C66.4202 6.73977 66.7551 6.18627 67.1776 5.72432C67.6025 5.2728 68.1022 4.91972 68.6482 4.68518C69.2367 4.43315 69.862 4.30792 70.4916 4.31601C71.0887 4.3097 71.6813 4.43191 72.2376 4.67607C72.755 4.90563 73.2211 5.26039 73.6029 5.71521C73.9954 6.19061 74.2985 6.75021 74.4942 7.36052C74.7158 8.07196 74.8241 8.82177 74.8142 9.57554L74.8021 9.58465ZM40.6379 7.30583V4.37526H38.2072V2.20126C38.1464 0.947909 37.6198 0.0135907 35.4686 0.0135907V11.3029C35.4666 11.7553 35.5184 12.2059 35.6225 12.6428C35.7143 13.0267 35.8803 13.3831 36.1087 13.6865C36.3531 13.9888 36.6609 14.2176 37.004 14.352C37.4832 14.5235 37.9839 14.6066 38.4867 14.5981C39.2192 14.6081 39.9475 14.4724 40.6379 14.197V11.5991C40.1771 11.732 39.7038 11.8024 39.2281 11.8088C39.08 11.8294 38.9296 11.8109 38.789 11.7547C38.6483 11.6986 38.5213 11.6063 38.4179 11.4852C38.2558 11.1893 38.1834 10.8423 38.2113 10.4962V7.30583H40.6379Z" fill="#008FB4"/>
<path d="M63.3858 9.20189L66.5862 4.64424H63.1994L60.3635 8.67321V2.2925C60.3109 0.979895 59.8044 0.0136729 57.6208 0.0136729V14.3794H60.3635V9.7397L63.6045 14.3794H67.0278L63.3858 9.20189ZM48.8175 14.3703V7.94398C48.8175 5.17749 46.8648 4.18392 45.1349 4.18392C43.7728 4.10745 42.4329 4.59373 41.3672 5.55122L42.7973 7.54747C43.3732 6.97847 44.0928 6.62629 44.8554 6.54023C45.8965 6.54023 46.1112 7.2102 46.1112 8.06704V8.23111H45.1754C42.769 8.23111 41.3227 9.40243 41.3227 11.4898C41.3227 13.7687 43.1052 14.3612 45.2767 14.3612L48.8175 14.3703ZM46.1112 12.3512H45.2119C44.511 12.3512 44.0816 12.0231 44.0816 11.344C44.0816 10.6649 44.511 10.2729 45.3699 10.2729H46.1112V12.3512ZM25.4783 1.77748C25.4783 2.2489 25.6447 2.70101 25.941 3.03435C26.2373 3.3677 26.6392 3.55497 27.0583 3.55497C27.4773 3.55497 27.8792 3.3677 28.1755 3.03435C28.4718 2.70101 28.6382 2.2489 28.6382 1.77748C28.6382 1.30607 28.4718 0.853955 28.1755 0.520613C27.8792 0.18727 27.4773 0 27.0583 0C26.6392 0 26.2373 0.18727 25.941 0.520613C25.6447 0.853955 25.4783 1.30607 25.4783 1.77748ZM25.7457 4.39813H25.6282V14.3794H28.4843V6.49921C28.4033 5.28687 27.8523 4.39813 25.7457 4.39813ZM34.8407 7.38795V4.47561C34.3383 4.4984 32.8151 4.73084 32.1426 5.63781V4.67615H29.3067V14.3794H32.1426V9.87187C32.1406 9.84609 32.1406 9.82017 32.1426 9.79439C32.5477 7.63406 34.3788 7.40618 34.8488 7.38795H34.8407ZM80.17 12.9164H80.0121V13.2536H80.17C80.1904 13.2549 80.2108 13.2514 80.2299 13.2435C80.249 13.2356 80.2665 13.2234 80.2813 13.2076C80.2961 13.1918 80.3079 13.1728 80.3159 13.1517C80.324 13.1306 80.3281 13.1079 80.328 13.085C80.3281 13.0621 80.324 13.0394 80.3159 13.0183C80.3079 12.9972 80.2961 12.9782 80.2813 12.9624C80.2665 12.9466 80.249 12.9344 80.2299 12.9265C80.2108 12.9186 80.1904 12.9151 80.17 12.9164ZM80.328 13.8507L80.1336 13.3949H80.0121V13.8507H79.8338V12.7432H80.2146C80.255 12.742 80.2952 12.7499 80.3328 12.7666C80.3704 12.7833 80.4046 12.8083 80.4333 12.8403C80.4621 12.8722 80.4848 12.9103 80.5001 12.9524C80.5155 12.9945 80.5231 13.0396 80.5225 13.085C80.523 13.1513 80.5049 13.2161 80.4707 13.2702C80.4365 13.3242 80.388 13.3647 80.3321 13.3858L80.5468 13.8416L80.328 13.8507ZM80.1417 12.4834C79.9937 12.4752 79.847 12.5171 79.7204 12.6036C79.5937 12.6901 79.4931 12.8173 79.4313 12.9688C79.3696 13.1203 79.3496 13.2892 79.3739 13.4536C79.3983 13.618 79.4659 13.7704 79.5679 13.8912C79.67 14.0119 79.8019 14.0955 79.9467 14.1312C80.0914 14.1668 80.2423 14.1529 80.3799 14.0912C80.5175 14.0294 80.6355 13.9227 80.7187 13.7848C80.8019 13.6469 80.8464 13.4841 80.8466 13.3175C80.8493 13.2105 80.8332 13.1041 80.7992 13.0042C80.7651 12.9043 80.7139 12.813 80.6484 12.7355C80.5829 12.6579 80.5044 12.5958 80.4174 12.5525C80.3305 12.5092 80.2368 12.4858 80.1417 12.4834ZM80.1417 14.3429C79.961 14.3492 79.7827 14.2949 79.6295 14.1869C79.4763 14.079 79.3551 13.9222 79.2814 13.7365C79.2076 13.5509 79.1845 13.3447 79.2151 13.1443C79.2457 12.9439 79.3286 12.7582 79.4533 12.6109C79.5779 12.4636 79.7387 12.3613 79.9151 12.317C80.0916 12.2728 80.2757 12.2886 80.4442 12.3623C80.6126 12.4361 80.7578 12.5646 80.8612 12.7314C80.9646 12.8982 81.0216 13.0959 81.0249 13.2992C81.0281 13.5668 80.937 13.8249 80.7715 14.0171C80.606 14.2093 80.3795 14.3199 80.1417 14.3247V14.3429ZM17.6553 8.75069L18.9234 4.6488L20.1914 8.75069H17.6553ZM20.2562 0.0136729H17.708L13.7742 11.7086H12.2267C11.1716 11.7589 10.1261 11.4644 9.21658 10.8609C8.85406 10.5992 8.55986 10.2338 8.36411 9.80216C8.16835 9.37052 8.07806 8.8881 8.10249 8.4043V7.03701H6.8466C5.67842 7.00098 4.55974 6.49854 3.69068 5.61958C3.01172 4.81843 2.58481 3.78906 2.47531 2.68901H11.2787C12.8789 2.68901 13.4704 3.56864 13.839 4.35711C14.0202 4.75258 14.1563 5.17215 14.2442 5.60591L15.3583 2.2925C15.3583 2.2925 14.4265 0.0136729 11.2787 0.0136729H0V1.38097C0 3.9606 0.680609 6.02977 2.02562 7.51556C3.08143 8.6396 4.4171 9.37422 5.85405 9.6212C6.36045 12.5472 8.75069 14.3703 12.2267 14.3703H15.8404L16.6506 11.7359H21.1758L21.9861 14.3657H25.0772L20.2562 0.0136729Z" fill="#008FB4"/>
</svg>
